<svg id="Capa_1" data-name="Capa 1" xmlns="http://www.w3.org/2000/svg" viewBox="0 0 220.56 22.4"><title>texto-opigamer</title><path d="M18.85,0A16.43,16.43,0,0,1,23,.46a6.43,6.43,0,0,1,2.79,1.48,5.81,5.81,0,0,1,1.55,2.6,13.78,13.78,0,0,1,.48,3.91V14a13.9,13.9,0,0,1-.48,3.92,5.86,5.86,0,0,1-1.55,2.63A6.4,6.4,0,0,1,23,22a16.47,16.47,0,0,1-4.14.45H9A16.33,16.33,0,0,1,4.83,22,6.38,6.38,0,0,1,2.06,20.5,6,6,0,0,1,.5,17.87,13.49,13.49,0,0,1,0,14V8.45A13.37,13.37,0,0,1,.5,4.54a5.91,5.91,0,0,1,1.56-2.6A6.41,6.41,0,0,1,4.83.46,16.29,16.29,0,0,1,9,0ZM4.9,13.6a9,9,0,0,0,.2,2.1A2.89,2.89,0,0,0,5.79,17a2.59,2.59,0,0,0,1.3.7A8.42,8.42,0,0,0,9.15,18h9.51a8.42,8.42,0,0,0,2.06-.21A2.64,2.64,0,0,0,22,17a2.88,2.88,0,0,0,.68-1.34,9,9,0,0,0,.21-2.1V8.8a9,9,0,0,0-.21-2.1A2.88,2.88,0,0,0,22,5.36a2.64,2.64,0,0,0-1.3-.7,8.42,8.42,0,0,0-2.06-.21H9.15a8.42,8.42,0,0,0-2.06.21,2.59,2.59,0,0,0-1.3.7A2.89,2.89,0,0,0,5.1,6.7a9,9,0,0,0-.2,2.1Z" style="fill:#c4c4c4"/><path d="M49.92,0c2.45,0,4.21.56,5.28,1.66a6.85,6.85,0,0,1,1.6,4.93V9a6.83,6.83,0,0,1-1.6,4.93q-1.61,1.66-5.28,1.66H36.67V21.7a.62.62,0,0,1-.7.7H32.51c-.49,0-.73-.23-.73-.7V1a.85.85,0,0,1,1-1ZM36.67,11.33H48.93a3.09,3.09,0,0,0,2.3-.71,3,3,0,0,0,.67-2.14V7.26a3,3,0,0,0-.67-2.14,3.09,3.09,0,0,0-2.3-.7H37.09c-.28,0-.42.12-.42.38Z" style="fill:#c4c4c4"/><path d="M64.16,0a.62.62,0,0,1,.7.7v21a.62.62,0,0,1-.7.7H60.7c-.49,0-.73-.23-.73-.7V.7c0-.46.24-.7.73-.7Z" style="fill:#c4c4c4"/><path d="M94.05,0a.62.62,0,0,1,.7.7V3.84c0,.49-.23.74-.7.74H78a9.1,9.1,0,0,0-2.07.2,2.7,2.7,0,0,0-1.29.71A2.86,2.86,0,0,0,74,6.82a8.81,8.81,0,0,0-.21,2.11v4.61A9,9,0,0,0,74,15.66,2.88,2.88,0,0,0,74.66,17a2.68,2.68,0,0,0,1.29.7,8.51,8.51,0,0,0,2.07.21H88.58a1.53,1.53,0,0,0,1.21-.43A2.29,2.29,0,0,0,90.18,16V13.38q0-.42-.39-.42H80.42c-.47,0-.71-.24-.71-.74V9.82a.64.64,0,0,1,.71-.73H93.76a.85.85,0,0,1,1,1V17.5a5.58,5.58,0,0,1-1,3.8,3.86,3.86,0,0,1-3,1.1H77.82A16.25,16.25,0,0,1,73.7,22a6.26,6.26,0,0,1-2.77-1.45,5.89,5.89,0,0,1-1.57-2.63,13.49,13.49,0,0,1-.5-3.92V8.45a13.37,13.37,0,0,1,.5-3.91,5.84,5.84,0,0,1,1.57-2.6A6.3,6.3,0,0,1,73.7.46,16.21,16.21,0,0,1,77.82,0Z" style="fill:#c4c4c4"/><path d="M112.32,0a4,4,0,0,1,2.05.5A5,5,0,0,1,116,2.43l10.59,19.23a.67.67,0,0,1,.08.53c0,.14-.21.21-.46.21h-4.07a.73.73,0,0,1-.73-.42l-2.27-4.12h-15L101.89,22a.78.78,0,0,1-.74.42H97c-.28,0-.44-.07-.49-.21a.63.63,0,0,1,.08-.53L107.07,2.43A5.35,5.35,0,0,1,108.64.5a3.23,3.23,0,0,1,1.79-.5Zm-6.21,14.14h11L112,4.77a.39.39,0,0,0-.35-.23h-.19a.39.39,0,0,0-.35.23Z" style="fill:#c4c4c4"/><path d="M135.65,0a6.09,6.09,0,0,1,1.21.1,2.24,2.24,0,0,1,.9.36,2.9,2.9,0,0,1,.69.74,7.74,7.74,0,0,1,.62,1.23l6.66,15.36a.45.45,0,0,0,.45.29h.38a.47.47,0,0,0,.45-.29l6.65-15.36a7.68,7.68,0,0,1,.63-1.23A2.73,2.73,0,0,1,155,.46a2.11,2.11,0,0,1,.87-.36,6.09,6.09,0,0,1,1.21-.1h3.42a2.7,2.7,0,0,1,2.24.75,4.38,4.38,0,0,1,.58,2.58V21.7c0,.47-.25.7-.74.7H159.3a.62.62,0,0,1-.71-.7V5c0-.21-.08-.32-.25-.32h-.29a.4.4,0,0,0-.42.26l-6.46,14.33a9.23,9.23,0,0,1-.79,1.46,4.38,4.38,0,0,1-.86,1,2.88,2.88,0,0,1-1.06.54,5.21,5.21,0,0,1-1.39.16h-1.54a5.26,5.26,0,0,1-1.39-.16,2.91,2.91,0,0,1-1-.54,4.67,4.67,0,0,1-.87-1,9.25,9.25,0,0,1-.78-1.46L135,4.93a.41.41,0,0,0-.42-.26h-.29c-.17,0-.25.11-.25.32V21.7a.62.62,0,0,1-.71.7h-3.26c-.49,0-.74-.23-.74-.7V3.33a4.3,4.3,0,0,1,.58-2.58A2.74,2.74,0,0,1,132.16,0Z" style="fill:#c4c4c4"/><path d="M190.3,0c.49,0,.74.24.74.7v3a.64.64,0,0,1-.74.71h-14a8.57,8.57,0,0,0-2.07.21,2.72,2.72,0,0,0-1.31.7,2.72,2.72,0,0,0-.69,1.34,10.31,10.31,0,0,0-.19,2.1v.32h18.08a.63.63,0,0,1,.71.7v2.53a.63.63,0,0,1-.71.71H172.06v.54a10.31,10.31,0,0,0,.19,2.1,2.51,2.51,0,0,0,2,2,8.57,8.57,0,0,0,2.07.21h14a.64.64,0,0,1,.74.71v3c0,.47-.25.7-.74.7H176.22a16.39,16.39,0,0,1-4.13-.45,6.28,6.28,0,0,1-2.76-1.45,5.89,5.89,0,0,1-1.57-2.63,13.49,13.49,0,0,1-.5-3.92V8.45a13.37,13.37,0,0,1,.5-3.91,5.84,5.84,0,0,1,1.57-2.6A6.32,6.32,0,0,1,172.09.46,16.35,16.35,0,0,1,176.22,0Z" style="fill:#c4c4c4"/><path d="M212.86,0c2.45,0,4.22.56,5.28,1.66a6.85,6.85,0,0,1,1.6,4.93V8.42a7.46,7.46,0,0,1-1.12,4.35A5.36,5.36,0,0,1,215,14.82l5.48,6.78a.53.53,0,0,1,.09.48c0,.21-.21.32-.51.32H215.9a1.09,1.09,0,0,1-.57-.1A1,1,0,0,1,215,22L210,15.33H199.61V21.7a.62.62,0,0,1-.7.7h-3.46c-.49,0-.73-.23-.73-.7V1a.85.85,0,0,1,1-1ZM199.61,11.42h12.26a3.07,3.07,0,0,0,2.3-.7,3,3,0,0,0,.68-2.14V7.23a3,3,0,0,0-.68-2.14,3.07,3.07,0,0,0-2.3-.71H200q-.42,0-.42.39Z" style="fill:#c4c4c4"/></svg>