<svg id="Capa_1" data-name="Capa 1" xmlns="http://www.w3.org/2000/svg" viewBox="0 0 220.56 114.55"><title>logo-opigamer</title><path d="M18.85,92.15a16,16,0,0,1,4.14.46,6.53,6.53,0,0,1,2.79,1.47,5.79,5.79,0,0,1,1.55,2.61,13.75,13.75,0,0,1,.48,3.9v5.51a14,14,0,0,1-.48,3.92,5.77,5.77,0,0,1-1.55,2.62A6.41,6.41,0,0,1,23,114.1a16.47,16.47,0,0,1-4.14.45H9a16.33,16.33,0,0,1-4.13-.45,6.39,6.39,0,0,1-2.77-1.46A5.87,5.87,0,0,1,.5,110,13.54,13.54,0,0,1,0,106.1v-5.51a13.35,13.35,0,0,1,.5-3.9,5.89,5.89,0,0,1,1.56-2.61,6.51,6.51,0,0,1,2.77-1.47A15.85,15.85,0,0,1,9,92.15ZM4.9,105.75a8.86,8.86,0,0,0,.2,2.09,2.88,2.88,0,0,0,.69,1.35,2.67,2.67,0,0,0,1.3.7,8.42,8.42,0,0,0,2.06.21h9.51a8.42,8.42,0,0,0,2.06-.21,2.72,2.72,0,0,0,1.3-.7,2.87,2.87,0,0,0,.68-1.35,8.8,8.8,0,0,0,.21-2.09V101a8.89,8.89,0,0,0-.21-2.1A2.88,2.88,0,0,0,22,97.51a2.73,2.73,0,0,0-1.3-.71,8.42,8.42,0,0,0-2.06-.21H9.15a8.42,8.42,0,0,0-2.06.21,2.68,2.68,0,0,0-1.3.71,2.89,2.89,0,0,0-.69,1.34,9,9,0,0,0-.2,2.1Z" style="fill:#c4c4c4"/><path d="M49.92,92.15q3.67,0,5.28,1.66a6.83,6.83,0,0,1,1.6,4.93v2.37A6.81,6.81,0,0,1,55.2,106q-1.61,1.66-5.28,1.67H36.67v6.14a.62.62,0,0,1-.7.71H32.51a.64.64,0,0,1-.73-.71V93.11a.85.85,0,0,1,1-1ZM36.67,103.47H48.93a3.09,3.09,0,0,0,2.3-.7,3,3,0,0,0,.67-2.14V99.41a3,3,0,0,0-.67-2.14,3.09,3.09,0,0,0-2.3-.71H37.09q-.42,0-.42.39Z" style="fill:#c4c4c4"/><path d="M64.16,92.15a.62.62,0,0,1,.7.7v21a.62.62,0,0,1-.7.71H60.7a.64.64,0,0,1-.73-.71v-21c0-.47.24-.7.73-.7Z" style="fill:#c4c4c4"/><path d="M94.05,92.15a.62.62,0,0,1,.7.7V96c0,.49-.23.73-.7.73H78a8.51,8.51,0,0,0-2.07.21,2.68,2.68,0,0,0-1.29.7A3,3,0,0,0,74,99a8.87,8.87,0,0,0-.21,2.11v4.61a9,9,0,0,0,.21,2.13,2.84,2.84,0,0,0,.69,1.34,2.62,2.62,0,0,0,1.29.71,8.51,8.51,0,0,0,2.07.21H88.58a1.53,1.53,0,0,0,1.21-.44,2.26,2.26,0,0,0,.39-1.52v-2.59c0-.27-.13-.41-.39-.41H80.42a.64.64,0,0,1-.71-.74V102a.64.64,0,0,1,.71-.73H93.76a.84.84,0,0,1,1,1v7.46a5.55,5.55,0,0,1-1,3.79,3.83,3.83,0,0,1-3,1.11H77.82a16.25,16.25,0,0,1-4.12-.45,6.28,6.28,0,0,1-2.77-1.46A5.8,5.8,0,0,1,69.36,110a13.54,13.54,0,0,1-.5-3.92v-5.51a13.35,13.35,0,0,1,.5-3.9,5.82,5.82,0,0,1,1.57-2.61,6.39,6.39,0,0,1,2.77-1.47,15.77,15.77,0,0,1,4.12-.46Z" style="fill:#c4c4c4"/><path d="M112.32,92.15a4,4,0,0,1,2.05.49A5.07,5.07,0,0,1,116,94.58l10.59,19.23a.67.67,0,0,1,.08.53c0,.14-.21.21-.46.21h-4.07a.73.73,0,0,1-.73-.42L119.14,110h-15l-2.21,4.13a.78.78,0,0,1-.74.42H97c-.28,0-.44-.07-.49-.21a.63.63,0,0,1,.08-.53l10.49-19.23a5.4,5.4,0,0,1,1.57-1.94,3.23,3.23,0,0,1,1.79-.49Zm-6.21,14.14h11L112,96.91a.39.39,0,0,0-.35-.22h-.19a.39.39,0,0,0-.35.22Z" style="fill:#c4c4c4"/><path d="M135.65,92.15a7,7,0,0,1,1.21.09,2.41,2.41,0,0,1,.9.37,2.74,2.74,0,0,1,.69.74,7.74,7.74,0,0,1,.62,1.23l6.66,15.36a.45.45,0,0,0,.45.29h.38a.47.47,0,0,0,.45-.29l6.65-15.36a7.68,7.68,0,0,1,.63-1.23,2.6,2.6,0,0,1,.69-.74,2.27,2.27,0,0,1,.87-.37,7,7,0,0,1,1.21-.09h3.42a2.7,2.7,0,0,1,2.24.75,4.36,4.36,0,0,1,.58,2.57v18.37a.64.64,0,0,1-.74.71H159.3a.63.63,0,0,1-.71-.71V97.14c0-.21-.08-.32-.25-.32h-.29a.39.39,0,0,0-.42.25l-6.46,14.34a9.7,9.7,0,0,1-.79,1.46,4.32,4.32,0,0,1-.86,1,2.76,2.76,0,0,1-1.06.55,5.65,5.65,0,0,1-1.39.16h-1.54a5.71,5.71,0,0,1-1.39-.16,2.79,2.79,0,0,1-1-.55,4.61,4.61,0,0,1-.87-1,9.72,9.72,0,0,1-.78-1.46L135,97.07a.41.41,0,0,0-.42-.25h-.29c-.17,0-.25.11-.25.32v16.7a.63.63,0,0,1-.71.71h-3.26a.64.64,0,0,1-.74-.71V95.47a4.29,4.29,0,0,1,.58-2.57,2.74,2.74,0,0,1,2.27-.75Z" style="fill:#c4c4c4"/><path d="M190.3,92.15c.49,0,.74.23.74.7v3c0,.47-.25.7-.74.7h-14a8.57,8.57,0,0,0-2.07.21,2.81,2.81,0,0,0-1.31.71,2.72,2.72,0,0,0-.69,1.34,10.24,10.24,0,0,0-.19,2.1v.32h18.08a.62.62,0,0,1,.71.7v2.53a.62.62,0,0,1-.71.7H172.06v.55a10.14,10.14,0,0,0,.19,2.09,2.71,2.71,0,0,0,.69,1.35,2.8,2.8,0,0,0,1.31.7,8.57,8.57,0,0,0,2.07.21h14c.49,0,.74.23.74.7v3a.64.64,0,0,1-.74.71H176.22a16.39,16.39,0,0,1-4.13-.45,6.29,6.29,0,0,1-2.76-1.46,5.8,5.8,0,0,1-1.57-2.62,13.54,13.54,0,0,1-.5-3.92v-5.51a13.35,13.35,0,0,1,.5-3.9,5.82,5.82,0,0,1,1.57-2.61,6.41,6.41,0,0,1,2.76-1.47,15.9,15.9,0,0,1,4.13-.46Z" style="fill:#c4c4c4"/><path d="M212.86,92.15c2.45,0,4.22.55,5.28,1.66a6.83,6.83,0,0,1,1.6,4.93v1.82a7.41,7.41,0,0,1-1.12,4.35,5.32,5.32,0,0,1-3.65,2l5.48,6.79a.52.52,0,0,1,.09.48c0,.21-.21.32-.51.32H215.9a1.2,1.2,0,0,1-.57-.1,1,1,0,0,1-.32-.32L210,107.47H199.61v6.37a.62.62,0,0,1-.7.71h-3.46a.64.64,0,0,1-.73-.71V93.11a.85.85,0,0,1,1-1Zm-13.25,11.42h12.26a3.07,3.07,0,0,0,2.3-.7,3,3,0,0,0,.68-2.15V99.38a3,3,0,0,0-.68-2.14,3.07,3.07,0,0,0-2.3-.71H200c-.28,0-.42.13-.42.38Z" style="fill:#c4c4c4"/><path d="M162.8,78.76c-6,0-13.1-7-18.94-12.77-2-2-3.72-3.65-5-4.63h0c-1.27-1-5.15-2.63-17-2.68H104.47c-13.83-.19-18.25,1.59-19.64,2.67s-3,2.67-5,4.63C73.42,72.33,65.4,80.21,59.14,78.54a10.58,10.58,0,0,1-6.68-5.06c-3.25-5.62-2.87-15.65,1.19-30.65,3.49-12.93,9.42-25.08,13.77-33A18.7,18.7,0,0,1,90,1.08a17.61,17.61,0,0,1,2.8,1.33c7.12,4.23,31,4.22,38.09,0a17.61,17.61,0,0,1,2.8-1.33,18.69,18.69,0,0,1,22.58,8.76c4.36,7.91,10.29,20.06,13.78,33,4.05,15,4.44,25,1.19,30.65a10.58,10.58,0,0,1-6.68,5.06A7,7,0,0,1,162.8,78.76ZM140.72,59A70.18,70.18,0,0,1,146,63.86c5.27,5.18,13.23,13,17.84,11.78A7.6,7.6,0,0,0,168.66,72c2.79-4.83,2.29-14.38-1.49-28.37-3.42-12.64-9.23-24.56-13.51-32.33A15.68,15.68,0,0,0,134.74,3.9,14,14,0,0,0,132.43,5c-8.08,4.79-33.07,4.79-41.15,0A14,14,0,0,0,89,3.9a15.68,15.68,0,0,0-18.92,7.38C65.77,19.05,60,31,56.54,43.61c-3.78,14-4.28,23.54-1.49,28.37a7.6,7.6,0,0,0,4.86,3.66c4.61,1.22,12.57-6.6,17.84-11.78A70.18,70.18,0,0,1,83,59c3.06-2.38,10.09-3.46,21.5-3.3h17.38c9.87,0,16,1.13,18.85,3.31Z" style="fill:#c4c4c4"/><path d="M137.9,43.92a12.79,12.79,0,1,1,12.79-12.79A12.8,12.8,0,0,1,137.9,43.92Zm0-19.9A7.11,7.11,0,1,0,145,31.13,7.12,7.12,0,0,0,137.9,24Z" style="fill:#c4c4c4"/><path d="M94.27,28.29h-7v-7a1.49,1.49,0,0,0-1.49-1.49H83a1.49,1.49,0,0,0-1.49,1.49v7h-7A1.48,1.48,0,0,0,73,29.78v2.7A1.48,1.48,0,0,0,74.5,34h7v7A1.49,1.49,0,0,0,83,42.5h2.71A1.49,1.49,0,0,0,87.23,41V34h7a1.49,1.49,0,0,0,1.49-1.49v-2.7A1.49,1.49,0,0,0,94.27,28.29Z" style="fill:#c4c4c4"/><path d="M178.84,44h-9.66a1.5,1.5,0,0,1,0-3h9.66a2.93,2.93,0,0,0,2.93-2.93V29.48a2.94,2.94,0,0,0-2.93-2.93H162.12a1.5,1.5,0,0,1,0-3h16.72a5.94,5.94,0,0,1,5.93,5.93v8.59A5.94,5.94,0,0,1,178.84,44Z" style="fill:#c4c4c4"/><path d="M172.84,44a1.5,1.5,0,0,1-1.5-1.5V25.05a1.5,1.5,0,0,1,3,0V42.5A1.5,1.5,0,0,1,172.84,44Z" style="fill:#c4c4c4"/><path d="M55.09,44H46.71a1.5,1.5,0,0,1,0-3h8.38a1.5,1.5,0,0,1,0,3Z" style="fill:#c4c4c4"/><path d="M60.58,26.55H46.71a1.5,1.5,0,0,1,0-3H60.58a1.5,1.5,0,0,1,0,3Z" style="fill:#c4c4c4"/><path d="M46.71,44a1.55,1.55,0,0,1-.75-.19L30.64,35.08a1.5,1.5,0,0,1-.76-1.3,1.51,1.51,0,0,1,.76-1.31L46,23.75a1.5,1.5,0,1,1,1.49,2.61l-13,7.42,13,7.42a1.5,1.5,0,0,1-.74,2.8Z" style="fill:#c4c4c4"/><path d="M38.73,39.46a1.5,1.5,0,0,1-1.5-1.5V31.13a1.5,1.5,0,0,1,3,0V38A1.5,1.5,0,0,1,38.73,39.46Z" style="fill:#c4c4c4"/><rect x="102.87" y="39.22" width="3.32" height="7.59" rx="1.66" transform="translate(147.54 -61.51) rotate(90)" style="fill:#c4c4c4"/><rect x="116.51" y="39.22" width="3.32" height="7.59" rx="1.66" transform="translate(161.19 -75.16) rotate(90)" style="fill:#c4c4c4"/><path d="M47.5,44a1.48,1.48,0,0,1-1.22-.62l-2.1-2.91a1.5,1.5,0,0,1,0-1.75l2.09-2.91a1.5,1.5,0,1,1,2.43,1.75l-1.46,2,1.46,2A1.49,1.49,0,0,1,47.5,44Z" style="fill:#c4c4c4"/><path d="M47.5,38.19a1.49,1.49,0,0,1-1.22-.63l-2.09-2.91a1.49,1.49,0,0,1,0-1.75L46.28,30a1.5,1.5,0,1,1,2.43,1.76l-1.46,2,1.46,2a1.51,1.51,0,0,1-1.21,2.38Z" style="fill:#c4c4c4"/><path d="M47.5,32.37a1.51,1.51,0,0,1-1.22-.62l-2.09-2.91a1.5,1.5,0,0,1,0-1.76l2.09-2.9a1.5,1.5,0,1,1,2.43,1.75l-1.46,2,1.46,2a1.5,1.5,0,0,1-.34,2.1A1.48,1.48,0,0,1,47.5,32.37Z" style="fill:#c4c4c4"/></svg>